<?xml version="1.0" encoding="UTF-8"?>
<svg version="1.1" viewBox="0 0 900 900" width="225" height="225" xmlns="http://www.w3.org/2000/svg">
<path transform="translate(0)" d="m0 0h900v900h-900z" fill="#FDFDFE"/>
<path transform="translate(419,307)" d="m0 0 2 3 3 5 8 4 16 10 11 9 10 9 5 5 6 3 1 15 3 13 5 7 12 6 7 1 10-3 5-2 3 1 1 2 9 5 7 6 8 5-1 5-8 14-6 8-6 7-9 7-13 8-16 5-13 2h-17l-17-4-14-7-15-12-10-13-7-16-4-15-2-23 2-20 4-17 6-15 9-14z" fill="#5839BE"/>
<path transform="translate(523,255)" d="m0 0h26l25 4 11 3-1 4-26 4-13 4-12 5-11 7-15 14-9 12-8 14-7 21-2 10-2-2-7-3-9-10-11-9-10-7-20-12-3-6-3 2 2-4 5-6 8-7 14-11 16-9 20-8 20-6z" fill="#08EFFD"/>
<path transform="translate(370,266)" d="m0 0 4 1v5l12 7 2 4h3v2l3-1 5 3-1 4-10 14-8 16-5 14-4 17-1 10v13l3 19 7 21 8 15 9 11 9 10 12 11 5 5-6-1-8-4-10-6-16-12-18-18-10-14-9-16-7-17-4-16-1-7v-20l3-15 6-18 8-16 9-12z" fill="#583ABE"/>
<path transform="translate(419,307)" d="m0 0 2 3 3 5 8 4 16 10 11 9 10 9 5 5 6 3 1 15 3 13 5 7 12 6 7 1 10-3 5-2 3 1 1 2 9 5 7 6 8 5-1 5-8 14-6 8-5 6-1-2-5 1-9-4-8-11-10-8-8-7-11-8-10-7v-2h-2l-13-13-13-9-16-12-9-6-12-6-5-6 1-6 5-13 9-14z" fill="#485DD0"/>
<path transform="translate(201,536)" d="m0 0h22l11 1 8 4 4 8 1 3v29l-3 9-7 5-4 1-14 1h-12l-19-1-6-4-4-5-2-7v-30l4-8 6-4 3-1z" fill="#253DA5"/>
<path transform="translate(350,536)" d="m0 0h15l5 2 8 9 2 1v2l4 2 14 15 2 1 1-31 2-1h17l1 1v59l-12 1-7-2-31-31-1 32-17 1-3-1-1-59z" fill="#263DA5"/>
<path transform="translate(449,537)" d="m0 0h54l1 1-1 12-1 1-43 1-2 1v26l1 2h28v-5h-16l-1-1v-13h37v34l-25 1h-14l-20-1-6-4-4-6-2-10v-17l2-12 5-7z" fill="#263DA5"/>
<path transform="translate(651,537)" d="m0 0h18l5 5 7 6 7 8 13 13h1v-32h20v58l-1 2h-12l-6-3-16-15-15-15-1 32-1 1h-16l-3-1z" fill="#253DA5"/>
<path transform="translate(285,536)" d="m0 0h24l4 4 12 25 15 30v1h-22l-4-8v-2h-32l-6 10h-21l2-6 26-52z" fill="#253CA4"/>
<path transform="translate(738,537)" d="m0 0h19l1 1 1 20h29l1-21h19v59h-19l-1-22h-29l-2 23h-18l-1-1z" fill="#253CA5"/>
<path transform="translate(91,537)" d="m0 0h19l1 22 30-1 1-21h19v59h-19l-1-23-31 1v22h-19l-1-1z" fill="#253BA3"/>
<path transform="translate(532,291)" d="m0 0 4 2 6 9 7 15 6 16 5 19 1 5v17l-2 14-4 16-3 7-4-1-9-6v-2l-5-2-8-5-4-4 5-5 5-8 5-14 3-15 1-17-3-18-5-15-1-2z" fill="#08F0FE"/>
<path transform="translate(398,344)" d="m0 0h2v2l3 1 4 4 12 6 14 10 24 18 7 7 3 2v2h2v2l5 2 14 11 9 7 7 6 6 5 6 8v2l11 3h3v3l-9 7-3 1v-2l-5-1-7-5-5-7-20-16-6-5-5-5-11-7-14-12-9-6v-2l-4-2-8-5-8-6-11-6-6-7-3-1-1 2 2-12z" fill="#4C48C5"/>
<path transform="translate(435,242)" d="m0 0h22l9 2v3l-8 3-18 7-11 6-11 8-10 9-8 8-7-3h-2v-2h-3l-5-5-9-5-1-5-1-3 11-7 17-8 17-5 8-2z" fill="#08EFFD"/>
<path transform="translate(562,536)" d="m0 0 2 1 1 44 35 1 4 8 1 6-19 1h-29l-13-1v-55l1-4z" fill="#263DA6"/>
<path transform="translate(370,266)" d="m0 0 4 1v5l12 7 2 4h3v2l3-1 5 3-1 4-10 14-8 16-2 3-11-8-9-7-5-2-5-6v-5-3l7-12 10-11z" fill="#475FD1"/>
<path transform="translate(615,537)" d="m0 0h20v59l-17 1-3-1z" fill="#253DA4"/>
<path transform="translate(315,626)" d="m0 0h27l3 2 1 5v16l-2 6-2 1h-28l-2-2-1-5v-14l1-7z" fill="#283FA8"/>
<path transform="translate(199,551)" d="m0 0h23l4 1 1 2v26l-3 2-17 1-10-2-1-2v-25z" fill="#FEFEFE"/>
<path transform="translate(368,625)" d="m0 0 8 1 6 7 8 10 2 1-1-7 1-11 5-1 3 1v30l-1 1-8-1-9-10-4-6-3-1v18h-7l-2-1v-30z" fill="#273EA7"/>
<path transform="translate(502,625)" d="m0 0 8 1 5 5 10 12 2 1v-18h8v30l-7 1-8-7-9-11-1 17-1 1h-7l-1-1v-30z" fill="#293FA9"/>
<path transform="translate(556,626)" d="m0 0h31l1 4-1 1-22 1-1 5h21l1 5-2 1h-10l-9 1v5l1 1 22 1v5l-13 1h-18l-1-1-1-18z" fill="#2A3FA9"/>
<path transform="translate(348,295)" d="m0 0 1 3 1 5 6 5 5 2 6 5 9 7h2l-1 6-2 4h-2l-1 2-10-5-9-8-8-5-2-7-2 1 3-9 2-5z" fill="#4D48C5"/>
<path transform="translate(421,626)" d="m0 0h9l1 12v12l5 1h16l1 5-20 1h-9l-3-1z" fill="#2A3EA8"/>
<path transform="translate(320,631)" d="m0 0h14l3 2v14l-1 4h-14l-2-2z" fill="#FDFDFE"/>
<path transform="translate(472,626)" d="m0 0h8l1 1v28l-4 2h-5l-1-1v-29z" fill="#2C42AD"/>
<path transform="translate(296,551)" d="m0 0 4 2 7 15v3h-19l3-9z" fill="#FEFEFE"/>
<path transform="translate(564,637)" d="m0 0h21l1 5-2 1h-10l-10 1-1-6z" fill="#4557CB"/>
<path transform="translate(425,626)" d="m0 0h5l1 12-1 12-2-4-1-10 2-9z" fill="#4A53CB"/>
</svg>
