<?xml version="1.0" encoding="UTF-8"?>
<svg version="1.1" viewBox="0 0 2048 1449" width="3508" height="2482" xmlns="http://www.w3.org/2000/svg">
    <path transform="translate(0)" d="m0 0h2048v1449h-2048z" fill="#1E00C9"/>
    <path transform="translate(1357,558)"
          d="m0 0h91l11 2 10 4 7 6 5 9 3 11v133l-4 13-6 8-5 4-2 2 17 25v1h-26l-5-3-6-7-8-12-21-31-13-19v-2h29l8 11 5 8 3-2 1-3v-119l-3-6-5-2h-80l-5 2-3 4v122l2 4 4 2 45 1 11 15 9 14v1h-72l-12-3-8-5-8-9-4-12-1-7v-124l3-14 5-9 8-7 9-4z"
          fill="#FEFEFD"/>
    <path transform="translate(647,558)"
          d="m0 0h20l7 15 23 53 18 42 17 39 5 12v2l3-3 1-4 1-156h32v163l-3 12-5 8-5 5-8 5-12 3h-24l-12-28-22-51-24-56-11-25v-3l-3 3-1 4-1 156h-32v-163l3-11 4-8 7-7 11-5z"
          fill="#FEFEFD"/>
    <path transform="translate(1015,602)"
          d="m0 0h56l10 4 5 4 3 7 3 1 2-6 8-7 8-3h56l12 3 10 6 7 9 3 9 1 5v120h-32l-1-114-3-5-3-2h-46l-4 2-2 4-1 115h-33l-1-115-2-4-4-2h-46l-5 4-1 3-1 114h-32v-121l4-13 7-9 10-6z"
          fill="#FEFEFD"/>
    <path transform="translate(840,602)"
          d="m0 0h76l11 3 9 5 7 8 4 10 2 13v74l-2 13-4 10-7 8-12 6-8 2h-76l-12-3-9-6-6-7-4-9-2-10v-14l2-9 6-9 11-7 12-5 63-16h4v25l-58 15-5 3-1 2v13l2 4 4 2h62l4-1 2-6v-77l-2-4-4-2h-62l-5 3-1 3-1 17h-33v-19l3-13 5-9 9-8 11-4z"
          fill="#FEFEFD"/>
    <path transform="translate(1232,602)" d="m0 0h33l1 115 2 4 4 2 16 1v30h-23l-11-3-9-5-7-8-4-10-2-13z"
          fill="#FEFEFD"/>
    <path transform="translate(1245,427)"
          d="m0 0h7l6 4 87 87h-3l-38-29-19-14-18-14-14-10h-9l-8 7-38 38 16-3h31l20 4 16 6 15 8 7 5-2 1-14-6-18-5-16-2h-16l-16 2-21 6-17 8-8 5h-29l6-7 89-89z"
          fill="#FEFEFD"/>
    <path transform="translate(1246,525)" d="m0 0 9 1 6 3 7 8 2 5v11l-4 8-8 6-6 2h-7l-8-3-6-5-4-9v-10l4-8 8-7z"
          fill="#FEFEFD"/>
    <path transform="translate(880,832)"
          d="m0 0h11l7 5 1-5h5v40l-4 7-8 4h-12l-6-3-4-5 4-2 6 4 9 1 6-3 2-3 2-10-9 6h-9l-7-4-4-7-1-3v-8l3-7 4-5z"
          fill="#FEFEFD"/>
    <path transform="translate(1077,832)" d="m0 0h11l7 4 5 8v12l-5 8-7 4h-12l-6-4-4-5-2-10 3-9 4-5z" fill="#FEFEFD"/>
    <path transform="translate(722,819)" d="m0 0h5l13 16 11 14 5 6 1-36h6v49h-5l-11-13-7-9-11-14-1 36h-6z"
          fill="#FEFEFD"/>
    <path transform="translate(992,832)"
          d="m0 0h11l6 3 5 6 1 3v8h-29l3 8 5 3h8l4-2 3-3 4 2-5 6-5 2h-11l-6-3-5-6-2-7 1-9 4-6 5-4z" fill="#FEFEFD"/>
    <path transform="translate(1297,832)"
          d="m0 0h12l6 4 4 5 1 3v8h-29l3 8 5 3h8l4-2 3-3 4 1-2 4-5 4-2 1h-12l-6-3-5-6-2-10 3-9 4-5z" fill="#FEFEFD"/>
    <path transform="translate(783,832)"
          d="m0 0h13l5 3 3 5 1 22 1 1v5l-6-1-2-3-7 4h-11l-5-4-2-5 1-6 5-5 3-1h16l-1-7-4-3h-9l-4 2-4-1 2-4z"
          fill="#FEFEFD"/>
    <path transform="translate(923,832)"
          d="m0 0h13l5 3 3 6 1 21 1 1v5l-6-1-2-3-7 4h-11l-5-4-2-5 1-6 5-5 3-1h16l-1-7-4-3h-9l-7 2v-4z" fill="#FEFEFD"/>
    <path transform="translate(1081,836)" d="m0 0 8 2 4 4 2 9-3 8-5 4-6 1-6-3-4-5-1-8 3-7 5-4z" fill="#1E00C9"/>
    <path transform="translate(886,836)" d="m0 0 7 2 5 5v15l-6 5-6 1-6-3-4-4-1-3v-8l4-7z" fill="#1E00C9"/>
    <path transform="translate(1163,832)"
          d="m0 0h5l1 22 2 7 6 2 7-3 3-4 1-24h6l1 30 1 1v5h-5l-2-2-1-4-6 5-2 1h-11l-5-5-1-3z" fill="#FEFEFD"/>
    <path transform="translate(1256,832)"
          d="m0 0h13l6 4 2 4-5 2-5-4-6-1-6 3-3 4-1 9 3 6 4 3 5 1 7-3 4-2 3 1-1 4-5 4-3 1h-11l-6-3-5-6-2-7 1-9 4-6 5-4z"
          fill="#FEFEFD"/>
    <path transform="translate(1216,832)"
          d="m0 0h12l7 4 2 4-5 2-5-4-6-1-7 3-3 7 1 9 4 5 7 2 7-3 4-2 3 1-1 4-5 4-3 1h-12l-6-4-4-5-2-6 1-10 4-6 5-4z"
          fill="#FEFEFD"/>
    <path transform="translate(1133,832)"
          d="m0 0h13l6 3-1 4-6-2h-10l-3 3v5l12 3 8 4 2 3-1 8-5 4-2 1h-13l-9-4 2-4 6 2 2 1h10l3-2v-5l-6-3-10-3-5-4v-7l5-6z"
          fill="#FEFEFD"/>
    <path transform="translate(1372,832)"
          d="m0 0h12l6 3v3l-3 1-4-2h-10l-3 3v5l12 3 8 4 2 3v6l-5 6-3 1h-13l-8-4 1-4 6 2 2 1h11l2-2v-5l-6-3-10-3-5-4v-7l5-6z"
          fill="#FEFEFD"/>
    <path transform="translate(1336,832)"
          d="m0 0h12l6 3v3l-3 1-4-2h-10l-2 1-1 7 12 3 8 4 2 3v6l-5 6-3 1h-13l-8-4 1-4 6 2 2 1h11l2-2 1-6-11-3-9-4-2-3v-6l5-6z"
          fill="#FEFEFD"/>
    <path transform="translate(1043,820)" d="m0 0h6v12h8v5h-8l1 24 1 1h8l1 4-4 2h-9l-4-5v-26l-5-1 1-4h4z"
          fill="#FEFEFD"/>
    <path transform="translate(812,832)" d="m0 0h5l5 12 6 16 1 1 11-29h5l-1 6-12 30h-7l-13-33z" fill="#FEFEFD"/>
    <path transform="translate(958,820)" d="m0 0h5v12h8v5h-8l1 23 1 2h8l1 4-4 2h-8l-4-3v-28h-5v-5h5z" fill="#FEFEFD"/>
    <path transform="translate(993,836)" d="m0 0h9l7 6 1 6h-24l-1-2 3-6z" fill="#1E00C9"/>
    <path transform="translate(1298,836)" d="m0 0h9l7 6 1 6h-24l1-7z" fill="#1E00C9"/>
    <path transform="translate(924,850)" d="m0 0h11l4 2-1 7-4 4-3 1h-8l-4-4v-6z" fill="#1E00C9"/>
    <path transform="translate(784,850)" d="m0 0h11l4 2-1 7-4 4-3 1h-8l-4-4v-6z" fill="#1E00C9"/>
    <path transform="translate(854,832)" d="m0 0h5v36h-5z" fill="#FEFEFD"/>
    <path transform="translate(854,818)" d="m0 0h5v7h-5z" fill="#FEFEFD"/>
</svg>
